<svg width="1280" height="106" viewBox="0 0 1280 106" fill="none" xmlns="http://www.w3.org/2000/svg">
<g filter="url(#filter0_b_445_5)">
<path d="M0 0H1279V46H1123L1115.5 52H872.5H829.5L818 61H798L772 95H744L730 86H562.5L545 95H516.5L487 61H467.5L456 52.5H413.5H351H183.5H165L157 45.5H0V0Z" fill="url(#paint0_linear_445_5)" fill-opacity="0.3"/>
</g>
<path d="M517.613 96.6476H773.914L798.992 62.4185H817.55L829.588 53.7842H872.472" stroke="#22EAEA" stroke-width="3"/>
<path d="M773.914 96.6476H515.607L485.764 62.4185H467.206L455.168 53.7842H412.284" stroke="#22EAEA" stroke-width="3"/>
<path d="M517.613 96.6476H773.914L798.992 62.4185H817.55L829.588 53.7842H872.472" stroke="#0A69A5" stroke-width="3"/>
<path d="M773.914 96.6476H515.607L485.764 62.4185H467.206L455.168 53.7842H412.284" stroke="#0A69A5" stroke-width="3"/>
<path d="M837.59 63.0352H915.862L927.398 53.4758H1115.99L1123.51 47H1279.5" stroke="#22EAEA" stroke-width="3"/>
<path d="M837.59 63.0352H915.862L927.398 53.4758H1115.99L1123.51 47H1279.5" stroke="#0A69A5" stroke-width="3"/>
<path d="M441.91 63.0352H363.638L352.102 53.4758H163.513L155.99 47H0.00240448" stroke="#22EAEA" stroke-width="3"/>
<path d="M441.91 63.0352H363.638L352.102 53.4758H163.513L155.99 47H0.00240448" stroke="#0A69A5" stroke-width="3"/>
<path d="M548.532 94.4141L562.018 86.8546H729.004L741.697 94.4141H548.532Z" fill="url(#paint1_linear_445_5)" stroke="#0A69A5" stroke-width="2"/>
<path d="M350.596 60.5242H161.505L148.966 54.0485L0.000518799 54.3568V60.5242H29.593L34.1071 66.6916H40.1259L36.1133 60.5242H42.6337L46.1447 66.6916L53.1666 66.3833L49.1541 60.5242H54.1697L58.1823 66.6916H64.7026L60.6901 60.5242H67.2105L70.7214 66.3833L77.2418 66.6916L72.7277 60.5242H144.953L157.492 66.6916H255.298L248.778 72.2423H255.298L262.32 66.6916H269.342L262.32 72.2423H269.342L275.361 66.6916H280.878L274.859 72.2423H280.878L286.897 66.6916H293.919L287.9 72.2423H293.919L299.436 66.6916H306.458L299.436 72.2423H305.455L312.978 66.6916H317.994L311.674 72.2423H318.696L325.016 66.6916H330.031L324.013 72.2423H330.031L335.549 66.6916H341.066L335.549 72.2423H340.063L346.082 66.6916H350.596V60.5242Z" fill="url(#paint2_linear_445_5)"/>
<path d="M929.404 58.4096H1023.95H1118.49L1131.03 51.9338L1280 52.2422V58.4096H1250.41L1245.89 64.577H1239.87L1243.89 58.4096H1237.37L1233.86 64.577L1226.83 64.2686L1230.85 58.4096H1225.83L1221.82 64.577H1215.3L1219.31 58.4096H1212.79L1209.28 64.2686L1202.76 64.577L1207.27 58.4096H1135.05L1122.51 64.577H1024.7L1031.22 70.1277H1024.7L1017.68 64.577H1010.66L1017.68 70.1277H1010.66L1004.64 64.577H999.122L1005.14 70.1277H999.122L993.103 64.577H986.081L992.1 70.1277H986.081L980.564 64.577H973.542L980.564 70.1277H974.545L967.022 64.577H962.006L968.326 70.1277H961.304L954.984 64.577H949.969L955.987 70.1277H949.969L944.451 64.577H938.934L944.451 70.1277H939.937L933.918 64.577H929.404V58.4096Z" fill="url(#paint3_linear_445_5)"/>
<path d="M475.988 69.8193L510.095 104.048H783.449L810.533 71.9779" stroke="#22EAEA" stroke-width="3"/>
<defs>
<filter id="filter0_b_445_5" x="-45" y="-45" width="1369" height="185" filterUnits="userSpaceOnUse" color-interpolation-filters="sRGB">
<feFlood flood-opacity="0" result="BackgroundImageFix"/>
<feGaussianBlur in="BackgroundImageFix" stdDeviation="22.5"/>
<feComposite in2="SourceAlpha" operator="in" result="effect1_backgroundBlur_445_5"/>
<feBlend mode="normal" in="SourceGraphic" in2="effect1_backgroundBlur_445_5" result="shape"/>
</filter>
<linearGradient id="paint0_linear_445_5" x1="620" y1="-4.55445e-07" x2="621" y2="529.5" gradientUnits="userSpaceOnUse">
<stop stop-color="#0A69A5" stop-opacity="0.6"/>
<stop offset="1" stop-color="#0A69A5" stop-opacity="0.4"/>
</linearGradient>
<linearGradient id="paint1_linear_445_5" x1="530.659" y1="90.7885" x2="778.935" y2="90.7885" gradientUnits="userSpaceOnUse">
<stop stop-color="#0A69A5"/>
<stop offset="0.5" stop-color="#22EAEA"/>
<stop offset="1" stop-color="#0A69A5"/>
</linearGradient>
<linearGradient id="paint2_linear_445_5" x1="466.959" y1="72.5507" x2="-122.23" y2="-4.14736" gradientUnits="userSpaceOnUse">
<stop stop-color="#0A69A5"/>
<stop offset="0.5" stop-color="#22EAEA"/>
<stop offset="1" stop-color="#0A69A5"/>
</linearGradient>
<linearGradient id="paint3_linear_445_5" x1="879.749" y1="70.436" x2="1359.7" y2="21.7973" gradientUnits="userSpaceOnUse">
<stop stop-color="#0A69A5"/>
<stop offset="0.5" stop-color="#22EAEA"/>
<stop offset="1" stop-color="#0A69A5"/>
</linearGradient>
</defs>
</svg>
