<svg width="744" height="74" viewBox="0 0 744 74" fill="none" xmlns="http://www.w3.org/2000/svg">
<g filter="url(#filter0_f_419_52)">
<path d="M300.656 53.9762H449.384L463.937 30.741H474.706L481.691 24.8799H506.576" stroke="#22EAEA" stroke-width="3"/>
<path d="M449.385 53.9762H299.493L282.175 30.741H271.406L264.421 24.8799H239.536" stroke="#22EAEA" stroke-width="3"/>
</g>
<path d="M300.656 53.9762H449.384L463.937 30.741H474.706L481.691 24.8799H506.576" stroke="#0A69A5" stroke-width="2"/>
<path d="M449.385 53.9762H299.493L282.175 30.741H271.406L264.421 24.8799H239.536" stroke="#0A69A5" stroke-width="2"/>
<g filter="url(#filter1_f_419_52)">
<path d="M486.332 31.1596H531.752L538.446 24.6705H647.882L652.248 20.2747H742.765" stroke="#22EAEA" stroke-width="3"/>
</g>
<path d="M486.332 31.1596H531.752L538.446 24.6705H647.882L652.248 20.2747H742.765" stroke="#0A69A5" stroke-width="2"/>
<g filter="url(#filter2_f_419_52)">
<path d="M256.725 31.1596H211.304L204.61 24.6705H95.1745L90.8088 20.2747H0.291422" stroke="#22EAEA" stroke-width="3"/>
</g>
<path d="M256.725 31.1596H211.304L204.61 24.6705H95.1745L90.8088 20.2747H0.291422" stroke="#0A69A5" stroke-width="2"/>
<path d="M319.726 52.1389L326.571 47.6498H423.17L429.613 52.1389H319.726Z" fill="url(#paint0_linear_419_52)" stroke="#0A69A5" stroke-width="2"/>
<path d="M203.445 28.4383H93.7185L86.4422 24.0425L-0.00038147 24.2518V28.4383H17.1717L19.7912 32.6248H23.2838L20.9554 28.4383H24.7391L26.7764 32.6248L30.8512 32.4155L28.5228 28.4383H31.4333L33.7617 32.6248H37.5454L35.217 28.4383H39.0007L41.038 32.4155L44.8217 32.6248L42.2022 28.4383H84.1138L91.3901 32.6248H148.145L144.362 36.3927H148.145L152.22 32.6248H156.295L152.22 36.3927H156.295L159.787 32.6248H162.989L159.496 36.3927H162.989L166.482 32.6248H170.556L167.064 36.3927H170.556L173.758 32.6248H177.833L173.758 36.3927H177.251L181.616 32.6248H184.527L180.86 36.3927H184.934L188.602 32.6248H191.512L188.02 36.3927H191.512L194.714 32.6248H197.915L194.714 36.3927H197.333L200.826 32.6248H203.445V28.4383Z" fill="url(#paint1_linear_419_52)"/>
<path d="M539.611 28.0197H649.338L656.614 23.6239L743.057 23.8332V28.0197H725.885L723.265 32.2063H719.773L722.101 28.0197H718.318L716.28 32.2063L712.205 31.9969L714.534 28.0197H711.623L709.295 32.2063H705.511L707.84 28.0197H704.056L702.019 31.9969L698.235 32.2063L700.854 28.0197H658.943L651.667 32.2063H594.911L598.695 35.9741H594.911L590.837 32.2063H586.762L590.837 35.9741H586.762L583.269 32.2063H580.068L583.56 35.9741H580.068L576.575 32.2063H572.5L575.993 35.9741H572.5L569.299 32.2063H565.224L569.299 35.9741H565.806L561.44 32.2063H558.53L562.197 35.9741H558.122L554.455 32.2063H551.544L555.037 35.9741H551.544L548.343 32.2063H545.141L548.343 35.9741H545.723L542.231 32.2063H539.611V28.0197Z" fill="url(#paint2_linear_419_52)"/>
<g filter="url(#filter3_f_419_52)">
<path d="M276.502 35.7649L296.294 59.0001H454.917L470.634 37.2302" stroke="#22EAEA" stroke-width="2"/>
</g>
<defs>
<filter id="filter0_f_419_52" x="221.535" y="5.37988" width="303.041" height="68.0963" filterUnits="userSpaceOnUse" color-interpolation-filters="sRGB">
<feFlood flood-opacity="0" result="BackgroundImageFix"/>
<feBlend mode="normal" in="SourceGraphic" in2="BackgroundImageFix" result="shape"/>
<feGaussianBlur stdDeviation="9" result="effect1_foregroundBlur_419_52"/>
</filter>
<filter id="filter1_f_419_52" x="468.332" y="0.774658" width="292.434" height="49.885" filterUnits="userSpaceOnUse" color-interpolation-filters="sRGB">
<feFlood flood-opacity="0" result="BackgroundImageFix"/>
<feBlend mode="normal" in="SourceGraphic" in2="BackgroundImageFix" result="shape"/>
<feGaussianBlur stdDeviation="9" result="effect1_foregroundBlur_419_52"/>
</filter>
<filter id="filter2_f_419_52" x="-17.709" y="0.774658" width="292.434" height="49.885" filterUnits="userSpaceOnUse" color-interpolation-filters="sRGB">
<feFlood flood-opacity="0" result="BackgroundImageFix"/>
<feBlend mode="normal" in="SourceGraphic" in2="BackgroundImageFix" result="shape"/>
<feGaussianBlur stdDeviation="9" result="effect1_foregroundBlur_419_52"/>
</filter>
<filter id="filter3_f_419_52" x="273.74" y="33.1165" width="199.705" height="28.8837" filterUnits="userSpaceOnUse" color-interpolation-filters="sRGB">
<feFlood flood-opacity="0" result="BackgroundImageFix"/>
<feBlend mode="normal" in="SourceGraphic" in2="BackgroundImageFix" result="shape"/>
<feGaussianBlur stdDeviation="1" result="effect1_foregroundBlur_419_52"/>
</filter>
<linearGradient id="paint0_linear_419_52" x1="308.227" y1="49.999" x2="452.298" y2="49.999" gradientUnits="userSpaceOnUse">
<stop stop-color="#0A69A5"/>
<stop offset="0.5" stop-color="#22EAEA"/>
<stop offset="1" stop-color="#0A69A5"/>
</linearGradient>
<linearGradient id="paint1_linear_419_52" x1="270.969" y1="36.602" x2="-72.4698" y2="-1.61622" gradientUnits="userSpaceOnUse">
<stop stop-color="#0A69A5"/>
<stop offset="0.5" stop-color="#22EAEA"/>
<stop offset="1" stop-color="#0A69A5"/>
</linearGradient>
<linearGradient id="paint2_linear_419_52" x1="510.797" y1="36.1835" x2="790.073" y2="11.9896" gradientUnits="userSpaceOnUse">
<stop stop-color="#0A69A5"/>
<stop offset="0.5" stop-color="#22EAEA"/>
<stop offset="1" stop-color="#0A69A5"/>
</linearGradient>
</defs>
</svg>
